<svg height="464pt" viewBox="0 0 464 464" width="464pt" style="fill: white" xmlns="http://www.w3.org/2000/svg"><path d="m304 11.3125v36.6875h36.6875zm0 0"/><path d="m192 176v64h64v-8c0-21.257812 7.574219-40.777344 20.167969-56zm0 0"/><path d="m280 301.777344v-27.546875c-4.761719 2.777343-8 7.882812-8 13.777343 0 5.894532 3.238281 10.992188 8 13.769532zm0 0"/><path d="m374.816406 386.289062-4.496094-1.296874-15.761718 15.761718 10.679687 14.230469zm0 0"/><path d="m392 302.3125v-46.425781c-16.984375-.789063-33.398438-5.726563-48-14.4375-14.601562 8.710937-31.015625 13.648437-48 14.4375v46.425781c0 13.398438 6.65625 25.839844 17.816406 33.28125l19.96875 13.308594c6.078125 4.050781 14.351563 4.050781 20.445313 0l19.960937-13.308594c11.152344-7.433594 17.808594-19.882812 17.808594-33.28125zm0 0"/><path d="m272 232v28.457031c2.480469-1.457031 5.152344-2.578125 8-3.320312v-17.136719h11.152344c17.28125 0 34.023437-5.0625 48.40625-14.65625l4.441406-2.960938 4.441406 2.960938c14.375 9.59375 31.117188 14.65625 48.398438 14.65625h11.160156v17.136719c2.839844.742187 5.511719 1.863281 8 3.320312v-28.457031c0-39.695312-32.296875-72-72-72s-72 32.304688-72 72zm0 0"/><path d="m408 301.777344c4.761719-2.777344 8-7.882813 8-13.777344s-3.238281-11-8-13.777344zm0 0"/><path d="m360 372.6875v-8.71875c-4.9375 2.597656-10.382812 4.03125-16 4.03125s-11.0625-1.441406-16-4.039062v8.726562l16 16zm0 0"/><path d="m313.183594 386.289062 9.578125 28.695313 10.679687-14.230469-15.761718-15.761718zm0 0"/><path d="m32 336h128v64h-128zm0 0"/><path d="m104 280c0 4.417969-3.582031 8-8 8s-8-3.582031-8-8 3.582031-8 8-8 8 3.582031 8 8zm0 0"/><path d="m446.648438 407.015625-56.464844-16.289063-19.429688 58.289063-26.753906-35.679687-26.761719 35.679687-19.429687-58.289063-56.464844 16.289063c-10.207031 2.945313-17.34375 12.433594-17.34375 23.054687v33.929688h41.449219l6.710937-33.566406 15.6875 3.140625-6.085937 30.425781h124.476562l-6.085937-30.433594 15.6875-3.140625 6.710937 33.574219h41.449219v-33.929688c0-10.621093-7.136719-20.109374-17.351562-23.054687zm0 0"/><path d="m192 48v64h128v-48h-32v-16zm0 0"/><path d="m128 88v4.121094c0 10.6875-4.167969 20.734375-11.71875 28.285156l-28.28125 28.28125v70.367188l16-8v-55.742188l23.59375-23.59375c10.574219-10.574219 16.40625-24.640625 16.40625-39.597656v-4.121094c0-30.878906-25.128906-56-56-56s-56 25.121094-56 56v8h16v-8c0-22.054688 17.945312-40 40-40s40 17.945312 40 40zm0 0"/><path d="m312 369.984375v-16.375l-7.0625-4.707031c-10.691406-7.125-18.320312-17.558594-22.152344-29.429688-15.160156-2.503906-26.785156-15.609375-26.785156-31.472656v-32h-80v-96h117.558594c14.296875-10.046875 31.671875-16 50.441406-16 2.703125 0 5.359375.167969 8 .40625v-80.40625h-16v64h-160v-96h112v-32h-288v432h208v-1.929688c0-17.710937 11.886719-33.511718 28.910156-38.429687zm-296-281.984375c0-39.695312 32.296875-72 72-72s72 32.304688 72 72v4.121094c0 19.238281-7.496094 37.320312-21.097656 50.917968l-18.902344 18.898438v59.007812l-48 24v-102.882812l32.96875-32.964844c4.527344-4.539062 7.03125-10.570312 7.03125-16.976562v-4.121094c0-13.230469-10.769531-24-24-24s-24 10.769531-24 24v24h-48zm104 192c0 13.230469-10.769531 24-24 24s-24-10.769531-24-24 10.769531-24 24-24 24 10.769531 24 24zm56 136h-160v-96h160zm0 0"/></svg>